<svg width="978" height="478" viewBox="0 0 978 478" fill="none" xmlns="http://www.w3.org/2000/svg">
<g opacity="0.29827">
<path d="M1008.08 145.448L443.182 -374.858V-765.19L28.1096 -788C24.9043 -780.456 4.36709 -758.714 7.57176 -746.596C11.43 -732.102 30.8387 -736.735 36.4776 -727.409C43.0661 -716.42 31.7291 -671.749 28.3457 -658.86C21.8759 -634.445 7.09676 -614.665 2.82235 -590.25C-4.35982 -549.263 10.1824 -552.53 37.7242 -526.927C84.141 -483.742 46.9244 -438.952 58.6176 -388.223C68.1146 -346.878 109.605 -325.554 124.8 -284.211C136.553 -252.37 152.697 -244.233 177.746 -220.947C177.153 -235.084 164.51 -276.785 188.253 -273.102C211.817 -269.478 202.736 -234.669 207.247 -220.115C211.045 -207.997 237.933 -183.761 215.616 -172.593C208.196 -168.91 187.066 -183.582 178.577 -187.503C184.572 -168.791 180.774 -149.367 190.271 -131.487C201.608 -110.162 213.835 -118.359 228.853 -106.775C244.344 -94.8355 242.683 -81.1137 235.797 -63.0554C228.615 -44.2247 221.196 -47.1352 232.592 -24.4434C240.843 -8.04881 254.85 12.7421 266.9 25.2164C273.904 32.4634 281.502 34.1267 288.506 43.3932C294.323 51.1155 292.067 61.2142 299.012 68.1638C310.883 80.1037 331.006 80.282 340.384 95.9044C350.831 113.309 338.96 126.437 369.706 124.833C371.309 159.643 377.897 191.185 377.541 225.994C394.695 232.825 422.414 224.687 440.399 221.063C458.266 245.18 481.355 228.429 501.774 241.558C510.678 247.26 508.837 261.517 514.239 266.506C525.339 276.723 533.529 270.308 547.301 273.872C557.51 276.486 565.404 283.97 575.138 286.703C584.338 289.257 599.475 283.258 606.301 291.396C614.492 301.138 600.78 318.958 613.127 326.799C623.395 333.333 638.115 317.77 648.088 320.027C659.721 322.7 693.079 353.174 701.271 363.212C710.59 374.677 719.969 396.062 725.25 410.793C733.501 433.841 732.373 445.127 749.408 461.998C760.27 472.75 749.942 473.522 767.63 476.67C779.204 478.749 794.518 470.374 806.212 469.067C830.549 466.394 855.122 471.027 879.102 466.453C901.421 462.176 922.729 455.166 945.64 451.899C965.465 449.048 1000.37 451.246 1017.94 441.801C1036.99 431.643 1038.71 408.654 1011.17 412.932C1008.97 398.26 1018.77 378.003 1007.85 367.847C1023.04 347.056 1028.56 332.384 1030.93 306.959C1032 295.792 1032.48 283.436 1038 274.05C1043.4 264.783 1058.59 259.259 1061.56 251.299C1066.13 238.943 1058.83 233.419 1053.25 226.528C1049.69 222.073 1039.54 224.212 1036.63 220.291C1031.23 213.103 1036.57 205.678 1033.6 198.431C1024.94 177.462 1014.61 169.205 1008.08 145.444C1008.26 149.424 1008.44 153.463 1008.2 157.384" stroke="white" stroke-width="2" stroke-linecap="round" stroke-linejoin="round"/>
</g>
<path d="M729.114 65.9394C720.546 89.3208 740.614 97.5255 756.675 112.807C761.434 117.336 761.888 124.817 756.879 129.342C746.107 139.074 705.264 124.917 707.854 137.745C710.53 150.994 745.061 169.531 746.618 170.799C760.284 181.932 764.735 210.174 757.208 225.658C751.852 236.676 716.342 232.962 705.172 229.293C632.024 205.266 664.985 208.131 582.817 200.67C576.527 200.099 569.935 199.806 563.894 201.65C557.671 203.549 557.869 211.339 559.957 215.55C566.876 229.506 597.849 253.178 589.514 271.523C586.956 277.152 580.963 280.707 578.264 286.27C576.151 290.627 576.385 295.772 575.445 300.523" stroke="white" stroke-width="2"/>
<path fill-rule="evenodd" clip-rule="evenodd" d="M573.5 308C577.09 308 580 305.09 580 301.5C580 297.91 577.09 295 573.5 295C569.91 295 567 297.91 567 301.5C567 305.09 569.91 308 573.5 308Z" fill="#4AF6CD"/>
<path fill-rule="evenodd" clip-rule="evenodd" d="M661 345C662.657 345 664 343.657 664 342C664 340.343 662.657 339 661 339C659.343 339 658 340.343 658 342C658 343.657 659.343 345 661 345Z" fill="#4AF6CD"/>
<path fill-rule="evenodd" clip-rule="evenodd" d="M725 453C726.657 453 728 451.657 728 450C728 448.343 726.657 447 725 447C723.343 447 722 448.343 722 450C722 451.657 723.343 453 725 453Z" fill="#4AF6CD"/>
<path fill-rule="evenodd" clip-rule="evenodd" d="M365 210C366.657 210 368 208.657 368 207C368 205.343 366.657 204 365 204C363.343 204 362 205.343 362 207C362 208.657 363.343 210 365 210Z" fill="#4AF6CD"/>
<path fill-rule="evenodd" clip-rule="evenodd" d="M729.5 73C733.09 73 736 70.0899 736 66.5C736 62.9101 733.09 60 729.5 60C725.91 60 723 62.9101 723 66.5C723 70.0899 725.91 73 729.5 73Z" fill="#4AF6CD"/>
<path d="M398.41 292.976L396.17 304H394.218L392.186 294.768L390.138 304H388.234L385.994 292.976H387.482L389.258 302.672L391.386 292.976H393.002L395.178 302.672L397.018 292.976H398.41ZM406.544 299.536C406.544 299.781 406.534 300.032 406.512 300.288H401.136C401.2 301.216 401.435 301.899 401.84 302.336C402.246 302.773 402.768 302.992 403.408 302.992C403.814 302.992 404.187 302.933 404.528 302.816C404.87 302.699 405.227 302.512 405.6 302.256L406.24 303.136C405.344 303.84 404.363 304.192 403.296 304.192C402.123 304.192 401.206 303.808 400.544 303.04C399.894 302.272 399.568 301.216 399.568 299.872C399.568 298.997 399.707 298.224 399.984 297.552C400.272 296.869 400.678 296.336 401.2 295.952C401.734 295.568 402.358 295.376 403.072 295.376C404.192 295.376 405.051 295.744 405.648 296.48C406.246 297.216 406.544 298.235 406.544 299.536ZM405.088 299.104C405.088 298.272 404.923 297.637 404.592 297.2C404.262 296.763 403.766 296.544 403.104 296.544C401.899 296.544 401.243 297.429 401.136 299.2H405.088V299.104ZM411.183 295.376C411.759 295.376 412.276 295.456 412.735 295.616C413.194 295.776 413.631 296.016 414.047 296.336L413.423 297.264C413.039 297.019 412.671 296.837 412.319 296.72C411.978 296.603 411.615 296.544 411.231 296.544C410.751 296.544 410.372 296.645 410.095 296.848C409.818 297.04 409.679 297.307 409.679 297.648C409.679 297.989 409.807 298.256 410.063 298.448C410.33 298.64 410.804 298.827 411.487 299.008C412.426 299.243 413.124 299.563 413.583 299.968C414.052 300.373 414.287 300.928 414.287 301.632C414.287 302.464 413.962 303.099 413.311 303.536C412.671 303.973 411.887 304.192 410.959 304.192C409.679 304.192 408.618 303.824 407.775 303.088L408.559 302.192C409.274 302.736 410.063 303.008 410.927 303.008C411.482 303.008 411.919 302.896 412.239 302.672C412.57 302.437 412.735 302.123 412.735 301.728C412.735 301.44 412.676 301.211 412.559 301.04C412.442 300.859 412.239 300.704 411.951 300.576C411.663 300.437 411.242 300.293 410.687 300.144C409.791 299.909 409.14 299.595 408.735 299.2C408.34 298.805 408.143 298.304 408.143 297.696C408.143 297.259 408.271 296.864 408.527 296.512C408.794 296.149 409.156 295.872 409.615 295.68C410.084 295.477 410.607 295.376 411.183 295.376ZM420.62 303.616C420.065 304 419.436 304.192 418.732 304.192C418.017 304.192 417.457 303.989 417.052 303.584C416.657 303.168 416.46 302.571 416.46 301.792V296.704H414.988V295.568H416.46V293.664L417.932 293.488V295.568H419.932L419.772 296.704H417.932V301.728C417.932 302.165 418.006 302.485 418.156 302.688C418.316 302.88 418.577 302.976 418.94 302.976C419.27 302.976 419.644 302.864 420.06 302.64L420.62 303.616ZM429.179 292.784C429.915 292.784 430.545 292.891 431.067 293.104C431.59 293.307 432.097 293.627 432.587 294.064L431.755 294.992C431.339 294.661 430.929 294.421 430.523 294.272C430.129 294.112 429.702 294.032 429.243 294.032C428.667 294.032 428.193 294.165 427.819 294.432C427.446 294.699 427.259 295.088 427.259 295.6C427.259 295.92 427.323 296.192 427.451 296.416C427.579 296.629 427.814 296.827 428.155 297.008C428.507 297.189 429.014 297.381 429.675 297.584C430.369 297.797 430.945 298.027 431.403 298.272C431.862 298.517 432.23 298.859 432.507 299.296C432.795 299.723 432.939 300.267 432.939 300.928C432.939 301.568 432.779 302.133 432.459 302.624C432.15 303.115 431.697 303.499 431.099 303.776C430.513 304.053 429.814 304.192 429.003 304.192C427.478 304.192 426.23 303.717 425.259 302.768L426.091 301.84C426.539 302.203 426.993 302.48 427.451 302.672C427.91 302.853 428.422 302.944 428.987 302.944C429.67 302.944 430.235 302.779 430.683 302.448C431.131 302.107 431.355 301.616 431.355 300.976C431.355 300.613 431.286 300.315 431.147 300.08C431.009 299.835 430.769 299.616 430.427 299.424C430.097 299.232 429.611 299.04 428.971 298.848C427.841 298.507 427.014 298.096 426.491 297.616C425.969 297.136 425.707 296.485 425.707 295.664C425.707 295.109 425.851 294.613 426.139 294.176C426.438 293.739 426.849 293.397 427.371 293.152C427.905 292.907 428.507 292.784 429.179 292.784ZM439.066 295.376C439.834 295.376 440.431 295.605 440.858 296.064C441.295 296.523 441.514 297.152 441.514 297.952V304H440.042V298.16C440.042 297.563 439.925 297.141 439.69 296.896C439.466 296.651 439.135 296.528 438.698 296.528C438.261 296.528 437.871 296.656 437.53 296.912C437.189 297.168 436.869 297.531 436.57 298V304H435.098V292.192L436.57 292.032V296.736C437.231 295.829 438.063 295.376 439.066 295.376ZM447.641 295.376C448.825 295.376 449.742 295.771 450.393 296.56C451.054 297.349 451.385 298.421 451.385 299.776C451.385 300.651 451.236 301.424 450.937 302.096C450.638 302.757 450.206 303.275 449.641 303.648C449.076 304.011 448.404 304.192 447.625 304.192C446.441 304.192 445.518 303.797 444.857 303.008C444.196 302.219 443.865 301.147 443.865 299.792C443.865 298.917 444.014 298.149 444.313 297.488C444.612 296.816 445.044 296.299 445.609 295.936C446.174 295.563 446.852 295.376 447.641 295.376ZM447.641 296.56C446.18 296.56 445.449 297.637 445.449 299.792C445.449 301.936 446.174 303.008 447.625 303.008C449.076 303.008 449.801 301.931 449.801 299.776C449.801 297.632 449.081 296.56 447.641 296.56ZM457.481 295.376C457.78 295.376 458.057 295.408 458.313 295.472L458.041 296.912C457.785 296.848 457.54 296.816 457.305 296.816C456.782 296.816 456.361 297.008 456.041 297.392C455.721 297.776 455.47 298.373 455.289 299.184V304H453.817V295.568H455.081L455.225 297.28C455.449 296.651 455.753 296.176 456.137 295.856C456.521 295.536 456.969 295.376 457.481 295.376ZM465.872 299.536C465.872 299.781 465.862 300.032 465.84 300.288H460.464C460.528 301.216 460.763 301.899 461.168 302.336C461.574 302.773 462.096 302.992 462.736 302.992C463.142 302.992 463.515 302.933 463.856 302.816C464.198 302.699 464.555 302.512 464.928 302.256L465.568 303.136C464.672 303.84 463.691 304.192 462.624 304.192C461.451 304.192 460.534 303.808 459.872 303.04C459.222 302.272 458.896 301.216 458.896 299.872C458.896 298.997 459.035 298.224 459.312 297.552C459.6 296.869 460.006 296.336 460.528 295.952C461.062 295.568 461.686 295.376 462.4 295.376C463.52 295.376 464.379 295.744 464.976 296.48C465.574 297.216 465.872 298.235 465.872 299.536ZM464.416 299.104C464.416 298.272 464.251 297.637 463.92 297.2C463.59 296.763 463.094 296.544 462.432 296.544C461.227 296.544 460.571 297.429 460.464 299.2H464.416V299.104ZM474.41 291.184V305.568H474.058V291.184H474.41ZM493.237 304H491.765L491.381 299.024C491.221 297.072 491.131 295.573 491.109 294.528L488.725 302.752H487.301L484.789 294.512C484.789 295.845 484.72 297.387 484.581 299.136L484.213 304H482.773L483.685 292.976H485.733L488.053 300.992L490.261 292.976H492.325L493.237 304ZM501.434 302.032C501.434 302.373 501.493 302.629 501.61 302.8C501.728 302.96 501.904 303.083 502.138 303.168L501.802 304.192C501.365 304.139 501.013 304.016 500.746 303.824C500.48 303.632 500.282 303.333 500.154 302.928C499.589 303.771 498.752 304.192 497.642 304.192C496.81 304.192 496.154 303.957 495.674 303.488C495.194 303.019 494.954 302.405 494.954 301.648C494.954 300.752 495.274 300.064 495.914 299.584C496.565 299.104 497.482 298.864 498.666 298.864H499.962V298.24C499.962 297.643 499.818 297.216 499.53 296.96C499.242 296.704 498.8 296.576 498.202 296.576C497.584 296.576 496.826 296.725 495.93 297.024L495.562 295.952C496.608 295.568 497.578 295.376 498.474 295.376C499.466 295.376 500.208 295.621 500.698 296.112C501.189 296.592 501.434 297.28 501.434 298.176V302.032ZM497.978 303.088C498.821 303.088 499.482 302.651 499.962 301.776V299.84H498.858C497.301 299.84 496.522 300.416 496.522 301.568C496.522 302.069 496.645 302.448 496.89 302.704C497.136 302.96 497.498 303.088 497.978 303.088ZM505.981 304.192C505.437 304.192 505.005 304.032 504.685 303.712C504.376 303.381 504.221 302.923 504.221 302.336V292.176L505.693 292V302.304C505.693 302.539 505.731 302.709 505.805 302.816C505.891 302.923 506.029 302.976 506.221 302.976C506.424 302.976 506.605 302.944 506.765 302.88L507.149 303.904C506.797 304.096 506.408 304.192 505.981 304.192ZM510.461 295.568V304H508.989V295.568H510.461ZM509.709 291.52C510.018 291.52 510.269 291.616 510.461 291.808C510.653 292 510.749 292.24 510.749 292.528C510.749 292.816 510.653 293.056 510.461 293.248C510.269 293.429 510.018 293.52 509.709 293.52C509.41 293.52 509.165 293.429 508.973 293.248C508.781 293.056 508.685 292.816 508.685 292.528C508.685 292.24 508.781 292 508.973 291.808C509.165 291.616 509.41 291.52 509.709 291.52ZM517.36 295.376C518.32 295.376 519.083 295.765 519.648 296.544C520.214 297.312 520.496 298.389 520.496 299.776C520.496 300.651 520.363 301.424 520.096 302.096C519.83 302.757 519.446 303.275 518.944 303.648C518.443 304.011 517.856 304.192 517.184 304.192C516.299 304.192 515.552 303.819 514.944 303.072L514.8 304H513.504V292.176L514.976 292V296.624C515.584 295.792 516.379 295.376 517.36 295.376ZM516.832 303.024C517.483 303.024 517.99 302.763 518.352 302.24C518.726 301.707 518.912 300.885 518.912 299.776C518.912 298.635 518.742 297.813 518.4 297.312C518.059 296.8 517.574 296.544 516.944 296.544C516.198 296.544 515.542 296.981 514.976 297.856V301.888C515.2 302.24 515.472 302.517 515.792 302.72C516.123 302.923 516.47 303.024 516.832 303.024ZM529.276 304H528.012L527.9 302.688C527.58 303.211 527.212 303.595 526.796 303.84C526.38 304.075 525.874 304.192 525.276 304.192C524.54 304.192 523.964 303.968 523.548 303.52C523.132 303.072 522.924 302.437 522.924 301.616V295.568H524.396V301.456C524.396 302.032 524.498 302.443 524.7 302.688C524.903 302.923 525.234 303.04 525.692 303.04C526.514 303.04 527.218 302.555 527.804 301.584V295.568H529.276V304ZM532.701 301.968C533.021 301.968 533.288 302.075 533.501 302.288C533.714 302.501 533.821 302.763 533.821 303.072C533.821 303.403 533.725 303.781 533.533 304.208L532.461 306.656H531.405L532.045 304C531.906 303.893 531.794 303.76 531.709 303.6C531.634 303.44 531.597 303.264 531.597 303.072C531.597 302.763 531.704 302.501 531.917 302.288C532.13 302.075 532.392 301.968 532.701 301.968ZM544.331 292.784C544.992 292.784 545.547 292.869 545.995 293.04C546.454 293.211 546.918 293.488 547.387 293.872L546.555 294.848C545.883 294.304 545.174 294.032 544.427 294.032C543.51 294.032 542.768 294.384 542.203 295.088C541.648 295.792 541.371 296.923 541.371 298.48C541.371 299.995 541.648 301.115 542.203 301.84C542.758 302.555 543.494 302.912 544.411 302.912C544.88 302.912 545.291 302.832 545.643 302.672C545.995 302.512 546.368 302.288 546.763 302L547.515 302.96C547.174 303.312 546.736 303.605 546.203 303.84C545.67 304.075 545.056 304.192 544.363 304.192C543.467 304.192 542.667 303.973 541.963 303.536C541.27 303.088 540.726 302.437 540.331 301.584C539.947 300.72 539.755 299.685 539.755 298.48C539.755 297.275 539.958 296.245 540.363 295.392C540.768 294.528 541.318 293.877 542.011 293.44C542.704 293.003 543.478 292.784 544.331 292.784ZM555.3 304L554.468 301.232H550.292L549.46 304H547.924L551.46 292.976H553.38L556.9 304H555.3ZM550.66 300H554.1L552.388 294.24L550.66 300Z" fill="white"/>
<path d="M598.378 57.784C599.039 57.784 599.594 57.8693 600.042 58.04C600.501 58.2107 600.965 58.488 601.434 58.872L600.602 59.848C599.93 59.304 599.221 59.032 598.474 59.032C597.557 59.032 596.815 59.384 596.25 60.088C595.695 60.792 595.418 61.9227 595.418 63.48C595.418 64.9947 595.695 66.1147 596.25 66.84C596.805 67.5547 597.541 67.912 598.458 67.912C598.927 67.912 599.338 67.832 599.69 67.672C600.042 67.512 600.415 67.288 600.81 67L601.562 67.96C601.221 68.312 600.783 68.6053 600.25 68.84C599.717 69.0747 599.103 69.192 598.41 69.192C597.514 69.192 596.714 68.9733 596.01 68.536C595.317 68.088 594.773 67.4373 594.378 66.584C593.994 65.72 593.802 64.6853 593.802 63.48C593.802 62.2747 594.005 61.2453 594.41 60.392C594.815 59.528 595.365 58.8773 596.058 58.44C596.751 58.0027 597.525 57.784 598.378 57.784ZM609.401 69H608.137L608.025 67.688C607.705 68.2107 607.337 68.5947 606.921 68.84C606.505 69.0747 605.999 69.192 605.401 69.192C604.665 69.192 604.089 68.968 603.673 68.52C603.257 68.072 603.049 67.4373 603.049 66.616V60.568H604.521V66.456C604.521 67.032 604.623 67.4427 604.825 67.688C605.028 67.9227 605.359 68.04 605.817 68.04C606.639 68.04 607.343 67.5547 607.929 66.584V60.568H609.401V69ZM616.106 60.376C616.405 60.376 616.682 60.408 616.938 60.472L616.666 61.912C616.41 61.848 616.165 61.816 615.93 61.816C615.407 61.816 614.986 62.008 614.666 62.392C614.346 62.776 614.095 63.3733 613.914 64.184V69H612.442V60.568H613.706L613.85 62.28C614.074 61.6507 614.378 61.176 614.762 60.856C615.146 60.536 615.594 60.376 616.106 60.376ZM622.278 60.376C622.576 60.376 622.854 60.408 623.11 60.472L622.838 61.912C622.582 61.848 622.336 61.816 622.102 61.816C621.579 61.816 621.158 62.008 620.838 62.392C620.518 62.776 620.267 63.3733 620.086 64.184V69H618.614V60.568H619.878L620.022 62.28C620.246 61.6507 620.55 61.176 620.934 60.856C621.318 60.536 621.766 60.376 622.278 60.376ZM630.669 64.536C630.669 64.7813 630.659 65.032 630.637 65.288H625.261C625.325 66.216 625.56 66.8987 625.965 67.336C626.371 67.7733 626.893 67.992 627.533 67.992C627.939 67.992 628.312 67.9333 628.653 67.816C628.995 67.6987 629.352 67.512 629.725 67.256L630.365 68.136C629.469 68.84 628.488 69.192 627.421 69.192C626.248 69.192 625.331 68.808 624.669 68.04C624.019 67.272 623.693 66.216 623.693 64.872C623.693 63.9973 623.832 63.224 624.109 62.552C624.397 61.8693 624.803 61.336 625.325 60.952C625.859 60.568 626.483 60.376 627.197 60.376C628.317 60.376 629.176 60.744 629.773 61.48C630.371 62.216 630.669 63.2347 630.669 64.536ZM629.213 64.104C629.213 63.272 629.048 62.6373 628.717 62.2C628.387 61.7627 627.891 61.544 627.229 61.544C626.024 61.544 625.368 62.4293 625.261 64.2H629.213V64.104ZM636.988 60.376C637.756 60.376 638.353 60.6053 638.78 61.064C639.217 61.5227 639.436 62.152 639.436 62.952V69H637.964V63.16C637.964 62.5627 637.852 62.1413 637.628 61.896C637.404 61.6507 637.073 61.528 636.636 61.528C636.188 61.528 635.793 61.656 635.452 61.912C635.111 62.168 634.791 62.536 634.492 63.016V69H633.02V60.568H634.284L634.412 61.816C634.711 61.368 635.079 61.016 635.516 60.76C635.964 60.504 636.455 60.376 636.988 60.376ZM646.651 68.616C646.096 69 645.467 69.192 644.763 69.192C644.048 69.192 643.488 68.9893 643.083 68.584C642.688 68.168 642.491 67.5707 642.491 66.792V61.704H641.019V60.568H642.491V58.664L643.963 58.488V60.568H645.963L645.803 61.704H643.963V66.728C643.963 67.1653 644.038 67.4853 644.187 67.688C644.347 67.88 644.608 67.976 644.971 67.976C645.302 67.976 645.675 67.864 646.091 67.64L646.651 68.616ZM654.011 57.976V67.672H658.539L658.363 69H652.491V57.976H654.011ZM663.141 60.376C664.325 60.376 665.242 60.7707 665.893 61.56C666.554 62.3493 666.885 63.4213 666.885 64.776C666.885 65.6507 666.736 66.424 666.437 67.096C666.138 67.7573 665.706 68.2747 665.141 68.648C664.576 69.0107 663.904 69.192 663.125 69.192C661.941 69.192 661.018 68.7973 660.357 68.008C659.696 67.2187 659.365 66.1467 659.365 64.792C659.365 63.9173 659.514 63.1493 659.813 62.488C660.112 61.816 660.544 61.2987 661.109 60.936C661.674 60.5627 662.352 60.376 663.141 60.376ZM663.141 61.56C661.68 61.56 660.949 62.6373 660.949 64.792C660.949 66.936 661.674 68.008 663.125 68.008C664.576 68.008 665.301 66.9307 665.301 64.776C665.301 62.632 664.581 61.56 663.141 61.56ZM672.389 60.376C672.89 60.376 673.349 60.4507 673.765 60.6C674.181 60.7387 674.581 60.968 674.965 61.288L674.261 62.216C673.962 62.0027 673.669 61.848 673.381 61.752C673.104 61.6453 672.794 61.592 672.453 61.592C671.77 61.592 671.237 61.864 670.853 62.408C670.48 62.952 670.293 63.7573 670.293 64.824C670.293 65.8907 670.48 66.68 670.853 67.192C671.226 67.6933 671.76 67.944 672.453 67.944C672.784 67.944 673.088 67.896 673.365 67.8C673.642 67.6933 673.952 67.528 674.293 67.304L674.965 68.264C674.197 68.8827 673.338 69.192 672.389 69.192C671.248 69.192 670.346 68.808 669.685 68.04C669.034 67.272 668.709 66.2107 668.709 64.856C668.709 63.96 668.858 63.176 669.157 62.504C669.456 61.832 669.877 61.3093 670.421 60.936C670.976 60.5627 671.632 60.376 672.389 60.376ZM682.481 67.032C682.481 67.3733 682.54 67.6293 682.657 67.8C682.775 67.96 682.951 68.0827 683.185 68.168L682.849 69.192C682.412 69.1387 682.06 69.016 681.793 68.824C681.527 68.632 681.329 68.3333 681.201 67.928C680.636 68.7707 679.799 69.192 678.689 69.192C677.857 69.192 677.201 68.9573 676.721 68.488C676.241 68.0187 676.001 67.4053 676.001 66.648C676.001 65.752 676.321 65.064 676.961 64.584C677.612 64.104 678.529 63.864 679.713 63.864H681.009V63.24C681.009 62.6427 680.865 62.216 680.577 61.96C680.289 61.704 679.847 61.576 679.249 61.576C678.631 61.576 677.873 61.7253 676.977 62.024L676.609 60.952C677.655 60.568 678.625 60.376 679.521 60.376C680.513 60.376 681.255 60.6213 681.745 61.112C682.236 61.592 682.481 62.28 682.481 63.176V67.032ZM679.025 68.088C679.868 68.088 680.529 67.6507 681.009 66.776V64.84H679.905C678.348 64.84 677.569 65.416 677.569 66.568C677.569 67.0693 677.692 67.448 677.937 67.704C678.183 67.96 678.545 68.088 679.025 68.088ZM689.76 68.616C689.206 69 688.576 69.192 687.872 69.192C687.158 69.192 686.598 68.9893 686.192 68.584C685.798 68.168 685.6 67.5707 685.6 66.792V61.704H684.128V60.568H685.6V58.664L687.072 58.488V60.568H689.072L688.912 61.704H687.072V66.728C687.072 67.1653 687.147 67.4853 687.296 67.688C687.456 67.88 687.718 67.976 688.08 67.976C688.411 67.976 688.784 67.864 689.2 67.64L689.76 68.616ZM692.758 60.568V69H691.286V60.568H692.758ZM692.006 56.52C692.315 56.52 692.566 56.616 692.758 56.808C692.95 57 693.046 57.24 693.046 57.528C693.046 57.816 692.95 58.056 692.758 58.248C692.566 58.4293 692.315 58.52 692.006 58.52C691.707 58.52 691.462 58.4293 691.27 58.248C691.078 58.056 690.982 57.816 690.982 57.528C690.982 57.24 691.078 57 691.27 56.808C691.462 56.616 691.707 56.52 692.006 56.52ZM698.969 60.376C700.153 60.376 701.071 60.7707 701.721 61.56C702.383 62.3493 702.713 63.4213 702.713 64.776C702.713 65.6507 702.564 66.424 702.265 67.096C701.967 67.7573 701.535 68.2747 700.969 68.648C700.404 69.0107 699.732 69.192 698.953 69.192C697.769 69.192 696.847 68.7973 696.185 68.008C695.524 67.2187 695.193 66.1467 695.193 64.792C695.193 63.9173 695.343 63.1493 695.641 62.488C695.94 61.816 696.372 61.2987 696.937 60.936C697.503 60.5627 698.18 60.376 698.969 60.376ZM698.969 61.56C697.508 61.56 696.777 62.6373 696.777 64.792C696.777 66.936 697.503 68.008 698.953 68.008C700.404 68.008 701.129 66.9307 701.129 64.776C701.129 62.632 700.409 61.56 698.969 61.56ZM709.113 60.376C709.881 60.376 710.478 60.6053 710.905 61.064C711.342 61.5227 711.561 62.152 711.561 62.952V69H710.089V63.16C710.089 62.5627 709.977 62.1413 709.753 61.896C709.529 61.6507 709.198 61.528 708.761 61.528C708.313 61.528 707.918 61.656 707.577 61.912C707.236 62.168 706.916 62.536 706.617 63.016V69H705.145V60.568H706.409L706.537 61.816C706.836 61.368 707.204 61.016 707.641 60.76C708.089 60.504 708.58 60.376 709.113 60.376Z" fill="white"/>
</svg>
